<svg xmlns="http://www.w3.org/2000/svg" width="24" height="24" viewBox="0 0 24 24" fill="white">
    <path d="M12 0.297C5.373 0.297 0 5.67 0 12.297c0 5.292 3.438 9.797 8.207 11.385.6.11.793-.261.793-.58 0-.285-.011-1.04-.016-2.04-3.338.726-4.042-1.61-4.042-1.61-.546-1.385-1.332-1.755-1.332-1.755-1.089-.745.082-.729.082-.729 1.205.085 1.84 1.238 1.84 1.238 1.07 1.834 2.805 1.304 3.49.997.109-.774.42-1.304.763-1.604-2.665-.304-5.466-1.333-5.466-5.933 0-1.31.469-2.384 1.235-3.223-.124-.303-.535-1.523.118-3.176 0 0 1.007-.323 3.3 1.23.96-.267 1.988-.4 3.011-.405 1.023.005 2.051.138 3.011.405 2.29-1.553 3.296-1.23 3.296-1.23.655 1.653.244 2.873.12 3.176.769.84 1.234 1.913 1.234 3.223 0 4.61-2.805 5.625-5.476 5.922.43.37.823 1.103.823 2.222 0 1.604-.015 2.898-.015 3.291 0 .322.19.696.8.578 4.763-1.59 8.196-6.093 8.196-11.383C24 5.67 18.627.297 12 .297z"/>
</svg>
